<?xml version="1.0" encoding="utf-8"?>
<!-- Generator: Adobe Illustrator 23.0.4, SVG Export Plug-In . SVG Version: 6.00 Build 0)  -->
<svg version="1.1" id="Layer_1" xmlns="http://www.w3.org/2000/svg" xmlns:xlink="http://www.w3.org/1999/xlink" x="0px" y="0px"
	 viewBox="0 0 250 90" style="enable-background:new 0 0 250 90;" xml:space="preserve">
<style type="text/css">
	.st0{fill:#0073FF;}
	.st1{fill:url(#SVGID_1_);}
	.st2{fill:url(#SVGID_2_);}
	.st3{fill:url(#SVGID_3_);}
	.st4{fill:url(#SVGID_4_);}
	.st5{fill:url(#SVGID_5_);}
	.st6{fill:url(#SVGID_6_);}
	.st7{fill:#333333;}
	.st8{fill:#669A41;}
	.st9{fill:#989A9D;}
	.st10{fill:#00ADEE;}
	.st11{fill:#FE7501;}
	.st12{fill:#FE3601;}
	.st13{fill:#393939;}
	.st14{fill:#1E01FD;}
	.st15{fill:#F41101;}
	.st16{fill:#787878;}
	.st17{fill:#0681FE;}
	.st18{fill:#0091BD;}
	.st19{fill:#323E48;}
	.st20{fill:#454545;}
	.st21{fill:#444444;}
	.st22{fill:#02C3E3;}
	.st23{fill:#494949;}
	.st24{fill:#01BCF0;}
	.st25{fill:#69657F;}
	.st26{fill:#02BCF0;}
	.st27{fill:#FBFBFC;}
	.st28{fill:#07BDF0;}
	.st29{fill:#09BEF1;}
	.st30{fill:#0CBEF1;}
	.st31{fill:#F7F7F8;}
	.st32{fill:#F4F3F5;}
	.st33{fill:#241F21;}
	.st34{fill:#7ABE90;}
	.st35{fill:#6ECBDC;}
	.st36{fill:#EE5047;}
	.st37{fill:#C7C9CC;}
	.st38{fill:#E8A822;}
	.st39{fill:url(#SVGID_7_);}
	.st40{fill:#010101;}
	.st41{fill:#FF3189;}
	.st42{fill:#231F20;}
	.st43{fill:#15181D;}
	.st44{fill-rule:evenodd;clip-rule:evenodd;fill:#4B80D8;}
	.st45{fill-rule:evenodd;clip-rule:evenodd;fill:#5AB7E1;}
	.st46{fill-rule:evenodd;clip-rule:evenodd;fill:#6AB892;}
	.st47{fill-rule:evenodd;clip-rule:evenodd;fill:#F7D047;}
	.st48{fill-rule:evenodd;clip-rule:evenodd;fill:#EE8251;}
	.st49{fill-rule:evenodd;clip-rule:evenodd;fill:#EB5E74;}
	.st50{fill-rule:evenodd;clip-rule:evenodd;fill:#5FC8C2;}
	.st51{fill:#3FA4EE;}
	.st52{fill:#4A4F56;}
</style>
<g>
	<path class="st7" d="M56.9,39.8c0,3.4-1.1,6-3.2,7.8s-5.2,2.7-9.1,2.7h-2.9v11.3H35V30h10.1c3.8,0,6.8,0.8,8.8,2.5
		C55.9,34.1,56.9,36.6,56.9,39.8z M41.7,44.9h2.2c2.1,0,3.6-0.4,4.6-1.2s1.5-2,1.5-3.6c0-1.6-0.4-2.7-1.3-3.5
		c-0.9-0.8-2.2-1.1-4-1.1h-3.1V44.9z"/>
	<path class="st7" d="M73.3,62.1c-3.9,0-6.9-1.1-9.1-3.2c-2.2-2.2-3.3-5.2-3.3-9.1c0-4.1,1-7.2,3-9.4c2-2.2,4.8-3.3,8.4-3.3
		c3.4,0,6.1,1,8,2.9c1.9,2,2.9,4.6,2.9,8.1v3.2H67.6c0.1,1.9,0.6,3.3,1.7,4.4c1,1.1,2.5,1.6,4.4,1.6c1.5,0,2.8-0.2,4.1-0.5
		c1.3-0.3,2.7-0.8,4.1-1.5v5.1c-1.2,0.6-2.4,1-3.7,1.3C76.8,61.9,75.2,62.1,73.3,62.1z M72.4,41.7c-1.4,0-2.5,0.4-3.3,1.3
		c-0.8,0.9-1.2,2.1-1.4,3.8H77c0-1.6-0.5-2.9-1.3-3.8C74.9,42.1,73.8,41.7,72.4,41.7z"/>
	<path class="st7" d="M110.9,61.6h-6.6V47.5c0-1.7-0.3-3.1-0.9-3.9c-0.6-0.9-1.6-1.3-3-1.3c-1.8,0-3.2,0.6-4,1.9
		c-0.8,1.2-1.2,3.3-1.2,6.1v11.4h-6.6V37.4h5l0.9,3.1h0.4c0.7-1.2,1.8-2.1,3-2.7c1.3-0.6,2.8-0.9,4.4-0.9c2.8,0,5,0.8,6.4,2.3
		c1.5,1.5,2.2,3.7,2.2,6.6V61.6z"/>
	<path class="st7" d="M127.9,56.8c1.2,0,2.5-0.3,4.2-0.8V61c-1.6,0.7-3.7,1.1-6.1,1.1c-2.6,0-4.6-0.7-5.8-2c-1.2-1.3-1.8-3.3-1.8-6
		V42.4h-3.2v-2.8l3.6-2.2l1.9-5.1h4.2v5.2h6.8v5h-6.8v11.7c0,0.9,0.3,1.6,0.8,2.1C126.4,56.6,127.1,56.8,127.9,56.8z"/>
	<path class="st7" d="M152.4,61.6l-1.3-3.3h-0.2c-1.1,1.4-2.3,2.4-3.4,2.9c-1.2,0.5-2.7,0.8-4.6,0.8c-2.3,0-4.2-0.7-5.5-2
		s-2-3.2-2-5.7c0-2.6,0.9-4.5,2.7-5.7c1.8-1.2,4.5-1.9,8.1-2l4.2-0.1v-1.1c0-2.5-1.3-3.7-3.8-3.7c-1.9,0-4.2,0.6-6.8,1.8l-2.2-4.5
		c2.8-1.5,5.9-2.2,9.3-2.2c3.3,0,5.7,0.7,7.5,2.1s2.6,3.6,2.6,6.5v16.1H152.4z M150.4,50.4l-2.6,0.1c-1.9,0.1-3.4,0.4-4.3,1
		c-0.9,0.6-1.4,1.6-1.4,2.9c0,1.9,1.1,2.8,3.2,2.8c1.5,0,2.8-0.4,3.7-1.3s1.4-2.1,1.4-3.5V50.4z"/>
	<path class="st7" d="M186.2,61.6h-6.6V47.5c0-3.5-1.3-5.2-3.9-5.2c-1.8,0-3.2,0.6-4,1.9s-1.2,3.3-1.2,6.1v11.4h-6.6V27.9h6.6v6.9
		c0,0.5-0.1,1.8-0.2,3.8l-0.2,2h0.3c1.5-2.4,3.8-3.6,7-3.6c2.8,0,5,0.8,6.5,2.3c1.5,1.5,2.2,3.7,2.2,6.6V61.6z"/>
	<path class="st7" d="M215,49.5c0,3.9-1,7-3.1,9.3c-2.1,2.2-5,3.3-8.7,3.3c-2.3,0-4.4-0.5-6.2-1.5c-1.8-1-3.1-2.5-4.1-4.4
		c-1-1.9-1.4-4.1-1.4-6.7c0-4,1-7,3.1-9.2s5-3.3,8.7-3.3c2.3,0,4.4,0.5,6.2,1.5c1.8,1,3.1,2.5,4.1,4.4C214.5,44.7,215,46.9,215,49.5
		z M198.2,49.5c0,2.4,0.4,4.2,1.2,5.4c0.8,1.2,2.1,1.8,3.8,1.8c1.8,0,3-0.6,3.8-1.8c0.8-1.2,1.2-3,1.2-5.5c0-2.4-0.4-4.2-1.2-5.4
		c-0.8-1.2-2.1-1.8-3.8-1.8c-1.8,0-3,0.6-3.8,1.8C198.6,45.3,198.2,47.1,198.2,49.5z"/>
</g>
</svg>
